<?xml version='1.0' encoding='iso-8859-1'?><svg version="1.1" xmlns="http://www.w3.org/2000/svg" viewBox="0 0 463 463" xmlns:xlink="http://www.w3.org/1999/xlink" enable-background="new 0 0 463 463"><g><g><path d="m87.5,32c-4.142,0-7.5,3.358-7.5,7.5v384c0,4.142 3.358,7.5 7.5,7.5s7.5-3.358 7.5-7.5v-384c0-4.142-3.358-7.5-7.5-7.5z"/><path d="m399,193.234v-161.734c0-17.369-14.131-31.5-31.5-31.5h-288c-17.369,0-31.5,14.131-31.5,31.5v400c0,17.369 14.131,31.5 31.5,31.5h288c17.369,0 31.5-14.131 31.5-31.5v-161.734c9.29-3.138 16-11.93 16-22.266v-32c0-10.336-6.71-19.128-16-22.266zm-128-178.234h49v96.5c0,0.138 0,0.309-0.276,0.447-0.277,0.138-0.413,0.035-0.523-0.047l-19.201-14.4c-2.667-2-6.333-2-9,0l-19.2,14.4c-0.11,0.083-0.247,0.185-0.523,0.047-0.277-0.138-0.277-0.309-0.277-0.447v-96.5zm96.5,433h-288c-9.098,0-16.5-7.402-16.5-16.5v-400c0-9.098 7.402-16.5 16.5-16.5h176.5v96.5c0,5.909 3.283,11.221 8.568,13.864 2.211,1.105 4.586,1.65 6.947,1.65 3.281,0 6.535-1.052 9.284-3.114l14.7-11.025 14.7,11.025c4.727,3.545 10.947,4.105 16.231,1.464 5.285-2.643 8.568-7.955 8.568-13.864v-96.5h32.5c9.098,0 16.5,7.402 16.5,16.5v160.5h-40.5c-21.78,0-39.5,17.72-39.5,39.5s17.72,39.5 39.5,39.5h40.502v160.5c0,9.098-7.402,16.5-16.5,16.5zm32.5-200.5c0,4.679-3.8,8.485-8.476,8.499-0.008,0-0.016-0.001-0.024-0.001-0.016,0-0.032,0.002-0.048,0.002h-47.952c-13.509,0-24.5-10.991-24.5-24.5s10.991-24.5 24.5-24.5h48c4.687,0 8.5,3.813 8.5,8.5v32z"/><path d="m343.5,224c-1.98,0-3.91,0.8-5.3,2.2-1.4,1.39-2.2,3.32-2.2,5.3 0,1.97 0.8,3.91 2.2,5.3 1.39,1.4 3.33,2.2 5.3,2.2s3.91-0.8 5.3-2.2c1.4-1.39 2.2-3.32 2.2-5.3s-0.8-3.91-2.2-5.3c-1.39-1.4-3.32-2.2-5.3-2.2z"/></g></g></svg>